%TF.GenerationSoftware,KiCad,Pcbnew,9.0.1*%
%TF.CreationDate,2025-04-06T22:03:23+09:00*%
%TF.ProjectId,ps2_pmod_levelshifter,7073325f-706d-46f6-945f-6c6576656c73,rev?*%
%TF.SameCoordinates,Original*%
%TF.FileFunction,Copper,L1,Top*%
%TF.FilePolarity,Positive*%
%FSLAX46Y46*%
G04 Gerber Fmt 4.6, Leading zero omitted, Abs format (unit mm)*
G04 Created by KiCad (PCBNEW 9.0.1) date 2025-04-06 22:03:23*
%MOMM*%
%LPD*%
G01*
G04 APERTURE LIST*
%TA.AperFunction,ComponentPad*%
%ADD10C,1.371600*%
%TD*%
%TA.AperFunction,ComponentPad*%
%ADD11R,3.200000X2.600000*%
%TD*%
%TA.AperFunction,ComponentPad*%
%ADD12R,2.600000X3.200000*%
%TD*%
%TA.AperFunction,ComponentPad*%
%ADD13R,1.700000X1.700000*%
%TD*%
%TA.AperFunction,ComponentPad*%
%ADD14O,1.700000X1.700000*%
%TD*%
%TA.AperFunction,ComponentPad*%
%ADD15C,1.700000*%
%TD*%
%TA.AperFunction,Conductor*%
%ADD16C,0.500000*%
%TD*%
G04 APERTURE END LIST*
D10*
%TO.P,J1,1,Pin_1*%
%TO.N,/PS{slash}2_DATA*%
X156012000Y-91470000D03*
%TO.P,J1,2,Pin_2*%
%TO.N,/PS{slash}2_DATA-*%
X156012000Y-88870000D03*
%TO.P,J1,3,Pin_3*%
%TO.N,GND_5V*%
X156012000Y-93570000D03*
%TO.P,J1,4,Pin_4*%
%TO.N,VCC_5V*%
X156012000Y-86770000D03*
%TO.P,J1,5,Pin_5*%
%TO.N,/PS{slash}2_CLK*%
X153512000Y-93570000D03*
%TO.P,J1,6,Pin_6*%
%TO.N,/PS{slash}2_CLK-*%
X153512000Y-86770000D03*
D11*
%TO.P,J1,GND*%
%TO.N,N/C*%
X158512000Y-83420000D03*
D12*
X159512000Y-90170000D03*
D11*
X158512000Y-96920000D03*
%TD*%
D13*
%TO.P,J3,1,Pin_1*%
%TO.N,VCC_5V*%
X158242000Y-100076000D03*
D14*
%TO.P,J3,2,Pin_2*%
%TO.N,GND_5V*%
X155702000Y-100076000D03*
%TO.P,J3,3,Pin_3*%
%TO.N,VCC_3V3*%
X153162000Y-100076000D03*
%TD*%
D13*
%TO.P,J2,1,Pin_1*%
%TO.N,/PMOD_DATA*%
X130048000Y-85344000D03*
D14*
%TO.P,J2,2,Pin_2*%
%TO.N,/PMOD_DATA-*%
X130048000Y-87884000D03*
%TO.P,J2,3,Pin_3*%
%TO.N,/PMOD_CLK*%
X130048000Y-90424000D03*
%TO.P,J2,4,Pin_4*%
%TO.N,/PMOD_CLK-*%
X130048000Y-92964000D03*
%TO.P,J2,5,Pin_5*%
%TO.N,GND_3V3*%
X130048000Y-95504000D03*
%TO.P,J2,6,Pin_6*%
%TO.N,VCC_3V3*%
X130048000Y-98044000D03*
%TD*%
D13*
%TO.P,U1,1,LV1*%
%TO.N,/PMOD_DATA*%
X138176000Y-85344000D03*
D15*
%TO.P,U1,2,LV2*%
%TO.N,/PMOD_DATA-*%
X138176000Y-87884000D03*
%TO.P,U1,3,LV*%
%TO.N,VCC_3V3*%
X138176000Y-90424000D03*
%TO.P,U1,4,GND_1*%
%TO.N,GND_3V3*%
X138176000Y-92964000D03*
%TO.P,U1,5,LV3*%
%TO.N,/PMOD_CLK*%
X138176000Y-95504000D03*
%TO.P,U1,6,LV4*%
%TO.N,/PMOD_CLK-*%
X138176000Y-98044000D03*
%TO.P,U1,7,HV1*%
%TO.N,/PS{slash}2_DATA*%
X148336000Y-85344000D03*
%TO.P,U1,8,HV2*%
%TO.N,/PS{slash}2_DATA-*%
X148336000Y-87884000D03*
%TO.P,U1,9,HV*%
%TO.N,VCC_5V*%
X148336000Y-90424000D03*
%TO.P,U1,10,GND_2*%
%TO.N,GND_5V*%
X148336000Y-92964000D03*
%TO.P,U1,11,HV3*%
%TO.N,/PS{slash}2_CLK*%
X148336000Y-95504000D03*
%TO.P,U1,12,EL*%
%TO.N,/PS{slash}2_CLK-*%
X148336000Y-98044000D03*
%TD*%
D16*
%TO.N,VCC_5V*%
X155414450Y-94961600D02*
X150776650Y-99599400D01*
X161036000Y-95504000D02*
X160493600Y-94961600D01*
X147097400Y-99599400D02*
X146558000Y-99060000D01*
X146558000Y-99060000D02*
X146558000Y-90932000D01*
X158242000Y-100076000D02*
X160274000Y-100076000D01*
X150776650Y-99599400D02*
X147097400Y-99599400D01*
X146558000Y-90932000D02*
X147066000Y-90424000D01*
X161036000Y-99314000D02*
X161036000Y-95504000D01*
X147066000Y-90424000D02*
X148336000Y-90424000D01*
X160493600Y-94961600D02*
X155414450Y-94961600D01*
X160274000Y-100076000D02*
X161036000Y-99314000D01*
%TO.N,/PS{slash}2_CLK-*%
X149860000Y-98044000D02*
X150622000Y-97282000D01*
X150622000Y-97282000D02*
X150622000Y-89660000D01*
X148336000Y-98044000D02*
X149860000Y-98044000D01*
X150622000Y-89660000D02*
X153512000Y-86770000D01*
%TO.N,/PS{slash}2_DATA-*%
X157349900Y-86178400D02*
X157349900Y-88522100D01*
X157002000Y-88870000D02*
X156012000Y-88870000D01*
X156515500Y-85344000D02*
X157349900Y-86178400D01*
X148336000Y-87884000D02*
X149860000Y-87884000D01*
X157349900Y-88522100D02*
X157002000Y-88870000D01*
X149860000Y-87884000D02*
X152400000Y-85344000D01*
X152400000Y-85344000D02*
X156515500Y-85344000D01*
%TD*%
M02*
