%TF.GenerationSoftware,KiCad,Pcbnew,9.0.1*%
%TF.CreationDate,2025-04-06T22:03:23+09:00*%
%TF.ProjectId,ps2_pmod_levelshifter,7073325f-706d-46f6-945f-6c6576656c73,rev?*%
%TF.SameCoordinates,Original*%
%TF.FileFunction,Legend,Top*%
%TF.FilePolarity,Positive*%
%FSLAX46Y46*%
G04 Gerber Fmt 4.6, Leading zero omitted, Abs format (unit mm)*
G04 Created by KiCad (PCBNEW 9.0.1) date 2025-04-06 22:03:23*
%MOMM*%
%LPD*%
G01*
G04 APERTURE LIST*
%ADD10C,0.250000*%
%ADD11C,0.220000*%
%ADD12C,0.200000*%
%ADD13C,0.150000*%
%ADD14C,0.381000*%
%ADD15C,0.120000*%
%ADD16C,0.127000*%
%ADD17C,1.371600*%
%ADD18R,3.200000X2.600000*%
%ADD19R,2.600000X3.200000*%
%ADD20R,1.700000X1.700000*%
%ADD21O,1.700000X1.700000*%
%ADD22C,1.700000*%
G04 APERTURE END LIST*
D10*
X133002377Y-90870226D02*
X132942853Y-90929750D01*
X132942853Y-90929750D02*
X132764282Y-90989273D01*
X132764282Y-90989273D02*
X132645234Y-90989273D01*
X132645234Y-90989273D02*
X132466663Y-90929750D01*
X132466663Y-90929750D02*
X132347615Y-90810702D01*
X132347615Y-90810702D02*
X132288092Y-90691654D01*
X132288092Y-90691654D02*
X132228568Y-90453559D01*
X132228568Y-90453559D02*
X132228568Y-90274988D01*
X132228568Y-90274988D02*
X132288092Y-90036892D01*
X132288092Y-90036892D02*
X132347615Y-89917845D01*
X132347615Y-89917845D02*
X132466663Y-89798797D01*
X132466663Y-89798797D02*
X132645234Y-89739273D01*
X132645234Y-89739273D02*
X132764282Y-89739273D01*
X132764282Y-89739273D02*
X132942853Y-89798797D01*
X132942853Y-89798797D02*
X133002377Y-89858321D01*
X134192853Y-90989273D02*
X133478568Y-90989273D01*
X133835711Y-90989273D02*
X133835711Y-89739273D01*
X133835711Y-89739273D02*
X133716663Y-89917845D01*
X133716663Y-89917845D02*
X133597615Y-90036892D01*
X133597615Y-90036892D02*
X133478568Y-90096416D01*
X132288092Y-88449273D02*
X132288092Y-87199273D01*
X132288092Y-87199273D02*
X132585711Y-87199273D01*
X132585711Y-87199273D02*
X132764282Y-87258797D01*
X132764282Y-87258797D02*
X132883330Y-87377845D01*
X132883330Y-87377845D02*
X132942853Y-87496892D01*
X132942853Y-87496892D02*
X133002377Y-87734988D01*
X133002377Y-87734988D02*
X133002377Y-87913559D01*
X133002377Y-87913559D02*
X132942853Y-88151654D01*
X132942853Y-88151654D02*
X132883330Y-88270702D01*
X132883330Y-88270702D02*
X132764282Y-88389750D01*
X132764282Y-88389750D02*
X132585711Y-88449273D01*
X132585711Y-88449273D02*
X132288092Y-88449273D01*
X133478568Y-87318321D02*
X133538092Y-87258797D01*
X133538092Y-87258797D02*
X133657139Y-87199273D01*
X133657139Y-87199273D02*
X133954758Y-87199273D01*
X133954758Y-87199273D02*
X134073806Y-87258797D01*
X134073806Y-87258797D02*
X134133330Y-87318321D01*
X134133330Y-87318321D02*
X134192853Y-87437369D01*
X134192853Y-87437369D02*
X134192853Y-87556416D01*
X134192853Y-87556416D02*
X134133330Y-87734988D01*
X134133330Y-87734988D02*
X133419044Y-88449273D01*
X133419044Y-88449273D02*
X134192853Y-88449273D01*
X132169044Y-97359273D02*
X132942853Y-97359273D01*
X132942853Y-97359273D02*
X132526187Y-97835464D01*
X132526187Y-97835464D02*
X132704758Y-97835464D01*
X132704758Y-97835464D02*
X132823806Y-97894988D01*
X132823806Y-97894988D02*
X132883330Y-97954511D01*
X132883330Y-97954511D02*
X132942853Y-98073559D01*
X132942853Y-98073559D02*
X132942853Y-98371178D01*
X132942853Y-98371178D02*
X132883330Y-98490226D01*
X132883330Y-98490226D02*
X132823806Y-98549750D01*
X132823806Y-98549750D02*
X132704758Y-98609273D01*
X132704758Y-98609273D02*
X132347615Y-98609273D01*
X132347615Y-98609273D02*
X132228568Y-98549750D01*
X132228568Y-98549750D02*
X132169044Y-98490226D01*
X133299996Y-97359273D02*
X133716663Y-98609273D01*
X133716663Y-98609273D02*
X134133329Y-97359273D01*
X134430949Y-97359273D02*
X135204758Y-97359273D01*
X135204758Y-97359273D02*
X134788092Y-97835464D01*
X134788092Y-97835464D02*
X134966663Y-97835464D01*
X134966663Y-97835464D02*
X135085711Y-97894988D01*
X135085711Y-97894988D02*
X135145235Y-97954511D01*
X135145235Y-97954511D02*
X135204758Y-98073559D01*
X135204758Y-98073559D02*
X135204758Y-98371178D01*
X135204758Y-98371178D02*
X135145235Y-98490226D01*
X135145235Y-98490226D02*
X135085711Y-98549750D01*
X135085711Y-98549750D02*
X134966663Y-98609273D01*
X134966663Y-98609273D02*
X134609520Y-98609273D01*
X134609520Y-98609273D02*
X134490473Y-98549750D01*
X134490473Y-98549750D02*
X134430949Y-98490226D01*
D11*
X131688069Y-83047440D02*
X131688069Y-82471250D01*
X131688069Y-82471250D02*
X131635688Y-82366488D01*
X131635688Y-82366488D02*
X131530926Y-82314107D01*
X131530926Y-82314107D02*
X131321402Y-82314107D01*
X131321402Y-82314107D02*
X131216640Y-82366488D01*
X131688069Y-82995060D02*
X131583307Y-83047440D01*
X131583307Y-83047440D02*
X131321402Y-83047440D01*
X131321402Y-83047440D02*
X131216640Y-82995060D01*
X131216640Y-82995060D02*
X131164259Y-82890298D01*
X131164259Y-82890298D02*
X131164259Y-82785536D01*
X131164259Y-82785536D02*
X131216640Y-82680774D01*
X131216640Y-82680774D02*
X131321402Y-82628393D01*
X131321402Y-82628393D02*
X131583307Y-82628393D01*
X131583307Y-82628393D02*
X131688069Y-82576012D01*
X132683307Y-82314107D02*
X132683307Y-83204583D01*
X132683307Y-83204583D02*
X132630926Y-83309345D01*
X132630926Y-83309345D02*
X132578545Y-83361726D01*
X132578545Y-83361726D02*
X132473783Y-83414107D01*
X132473783Y-83414107D02*
X132316640Y-83414107D01*
X132316640Y-83414107D02*
X132211878Y-83361726D01*
X132683307Y-82995060D02*
X132578545Y-83047440D01*
X132578545Y-83047440D02*
X132369021Y-83047440D01*
X132369021Y-83047440D02*
X132264259Y-82995060D01*
X132264259Y-82995060D02*
X132211878Y-82942679D01*
X132211878Y-82942679D02*
X132159497Y-82837917D01*
X132159497Y-82837917D02*
X132159497Y-82523631D01*
X132159497Y-82523631D02*
X132211878Y-82418869D01*
X132211878Y-82418869D02*
X132264259Y-82366488D01*
X132264259Y-82366488D02*
X132369021Y-82314107D01*
X132369021Y-82314107D02*
X132578545Y-82314107D01*
X132578545Y-82314107D02*
X132683307Y-82366488D01*
X133049973Y-82314107D02*
X133469021Y-82314107D01*
X133207116Y-81947440D02*
X133207116Y-82890298D01*
X133207116Y-82890298D02*
X133259497Y-82995060D01*
X133259497Y-82995060D02*
X133364259Y-83047440D01*
X133364259Y-83047440D02*
X133469021Y-83047440D01*
X133835687Y-83047440D02*
X133835687Y-81947440D01*
X133835687Y-82366488D02*
X133940449Y-82314107D01*
X133940449Y-82314107D02*
X134149973Y-82314107D01*
X134149973Y-82314107D02*
X134254735Y-82366488D01*
X134254735Y-82366488D02*
X134307116Y-82418869D01*
X134307116Y-82418869D02*
X134359497Y-82523631D01*
X134359497Y-82523631D02*
X134359497Y-82837917D01*
X134359497Y-82837917D02*
X134307116Y-82942679D01*
X134307116Y-82942679D02*
X134254735Y-82995060D01*
X134254735Y-82995060D02*
X134149973Y-83047440D01*
X134149973Y-83047440D02*
X133940449Y-83047440D01*
X133940449Y-83047440D02*
X133835687Y-82995060D01*
X135302354Y-83047440D02*
X135302354Y-82471250D01*
X135302354Y-82471250D02*
X135249973Y-82366488D01*
X135249973Y-82366488D02*
X135145211Y-82314107D01*
X135145211Y-82314107D02*
X134935687Y-82314107D01*
X134935687Y-82314107D02*
X134830925Y-82366488D01*
X135302354Y-82995060D02*
X135197592Y-83047440D01*
X135197592Y-83047440D02*
X134935687Y-83047440D01*
X134935687Y-83047440D02*
X134830925Y-82995060D01*
X134830925Y-82995060D02*
X134778544Y-82890298D01*
X134778544Y-82890298D02*
X134778544Y-82785536D01*
X134778544Y-82785536D02*
X134830925Y-82680774D01*
X134830925Y-82680774D02*
X134935687Y-82628393D01*
X134935687Y-82628393D02*
X135197592Y-82628393D01*
X135197592Y-82628393D02*
X135302354Y-82576012D01*
X135773782Y-82995060D02*
X135878544Y-83047440D01*
X135878544Y-83047440D02*
X136088068Y-83047440D01*
X136088068Y-83047440D02*
X136192830Y-82995060D01*
X136192830Y-82995060D02*
X136245211Y-82890298D01*
X136245211Y-82890298D02*
X136245211Y-82837917D01*
X136245211Y-82837917D02*
X136192830Y-82733155D01*
X136192830Y-82733155D02*
X136088068Y-82680774D01*
X136088068Y-82680774D02*
X135930925Y-82680774D01*
X135930925Y-82680774D02*
X135826163Y-82628393D01*
X135826163Y-82628393D02*
X135773782Y-82523631D01*
X135773782Y-82523631D02*
X135773782Y-82471250D01*
X135773782Y-82471250D02*
X135826163Y-82366488D01*
X135826163Y-82366488D02*
X135930925Y-82314107D01*
X135930925Y-82314107D02*
X136088068Y-82314107D01*
X136088068Y-82314107D02*
X136192830Y-82366488D01*
X136716639Y-83047440D02*
X136716639Y-81947440D01*
X136821401Y-82628393D02*
X137135687Y-83047440D01*
X137135687Y-82314107D02*
X136716639Y-82733155D01*
X138078544Y-83047440D02*
X138078544Y-82471250D01*
X138078544Y-82471250D02*
X138026163Y-82366488D01*
X138026163Y-82366488D02*
X137921401Y-82314107D01*
X137921401Y-82314107D02*
X137711877Y-82314107D01*
X137711877Y-82314107D02*
X137607115Y-82366488D01*
X138078544Y-82995060D02*
X137973782Y-83047440D01*
X137973782Y-83047440D02*
X137711877Y-83047440D01*
X137711877Y-83047440D02*
X137607115Y-82995060D01*
X137607115Y-82995060D02*
X137554734Y-82890298D01*
X137554734Y-82890298D02*
X137554734Y-82785536D01*
X137554734Y-82785536D02*
X137607115Y-82680774D01*
X137607115Y-82680774D02*
X137711877Y-82628393D01*
X137711877Y-82628393D02*
X137973782Y-82628393D01*
X137973782Y-82628393D02*
X138078544Y-82576012D01*
X138602353Y-83047440D02*
X138602353Y-82314107D01*
X138602353Y-82523631D02*
X138654734Y-82418869D01*
X138654734Y-82418869D02*
X138707115Y-82366488D01*
X138707115Y-82366488D02*
X138811877Y-82314107D01*
X138811877Y-82314107D02*
X138916639Y-82314107D01*
X139754734Y-83047440D02*
X139754734Y-82471250D01*
X139754734Y-82471250D02*
X139702353Y-82366488D01*
X139702353Y-82366488D02*
X139597591Y-82314107D01*
X139597591Y-82314107D02*
X139388067Y-82314107D01*
X139388067Y-82314107D02*
X139283305Y-82366488D01*
X139754734Y-82995060D02*
X139649972Y-83047440D01*
X139649972Y-83047440D02*
X139388067Y-83047440D01*
X139388067Y-83047440D02*
X139283305Y-82995060D01*
X139283305Y-82995060D02*
X139230924Y-82890298D01*
X139230924Y-82890298D02*
X139230924Y-82785536D01*
X139230924Y-82785536D02*
X139283305Y-82680774D01*
X139283305Y-82680774D02*
X139388067Y-82628393D01*
X139388067Y-82628393D02*
X139649972Y-82628393D01*
X139649972Y-82628393D02*
X139754734Y-82576012D01*
X140278543Y-82942679D02*
X140330924Y-82995060D01*
X140330924Y-82995060D02*
X140278543Y-83047440D01*
X140278543Y-83047440D02*
X140226162Y-82995060D01*
X140226162Y-82995060D02*
X140278543Y-82942679D01*
X140278543Y-82942679D02*
X140278543Y-83047440D01*
X141273782Y-82995060D02*
X141169020Y-83047440D01*
X141169020Y-83047440D02*
X140959496Y-83047440D01*
X140959496Y-83047440D02*
X140854734Y-82995060D01*
X140854734Y-82995060D02*
X140802353Y-82942679D01*
X140802353Y-82942679D02*
X140749972Y-82837917D01*
X140749972Y-82837917D02*
X140749972Y-82523631D01*
X140749972Y-82523631D02*
X140802353Y-82418869D01*
X140802353Y-82418869D02*
X140854734Y-82366488D01*
X140854734Y-82366488D02*
X140959496Y-82314107D01*
X140959496Y-82314107D02*
X141169020Y-82314107D01*
X141169020Y-82314107D02*
X141273782Y-82366488D01*
X141902353Y-83047440D02*
X141797591Y-82995060D01*
X141797591Y-82995060D02*
X141745210Y-82942679D01*
X141745210Y-82942679D02*
X141692829Y-82837917D01*
X141692829Y-82837917D02*
X141692829Y-82523631D01*
X141692829Y-82523631D02*
X141745210Y-82418869D01*
X141745210Y-82418869D02*
X141797591Y-82366488D01*
X141797591Y-82366488D02*
X141902353Y-82314107D01*
X141902353Y-82314107D02*
X142059496Y-82314107D01*
X142059496Y-82314107D02*
X142164258Y-82366488D01*
X142164258Y-82366488D02*
X142216639Y-82418869D01*
X142216639Y-82418869D02*
X142269020Y-82523631D01*
X142269020Y-82523631D02*
X142269020Y-82837917D01*
X142269020Y-82837917D02*
X142216639Y-82942679D01*
X142216639Y-82942679D02*
X142164258Y-82995060D01*
X142164258Y-82995060D02*
X142059496Y-83047440D01*
X142059496Y-83047440D02*
X141902353Y-83047440D01*
X142740448Y-83047440D02*
X142740448Y-82314107D01*
X142740448Y-82418869D02*
X142792829Y-82366488D01*
X142792829Y-82366488D02*
X142897591Y-82314107D01*
X142897591Y-82314107D02*
X143054734Y-82314107D01*
X143054734Y-82314107D02*
X143159496Y-82366488D01*
X143159496Y-82366488D02*
X143211877Y-82471250D01*
X143211877Y-82471250D02*
X143211877Y-83047440D01*
X143211877Y-82471250D02*
X143264258Y-82366488D01*
X143264258Y-82366488D02*
X143369020Y-82314107D01*
X143369020Y-82314107D02*
X143526163Y-82314107D01*
X143526163Y-82314107D02*
X143630924Y-82366488D01*
X143630924Y-82366488D02*
X143683305Y-82471250D01*
X143683305Y-82471250D02*
X143683305Y-83047440D01*
X146150259Y-82052202D02*
X146202640Y-81999821D01*
X146202640Y-81999821D02*
X146307402Y-81947440D01*
X146307402Y-81947440D02*
X146569307Y-81947440D01*
X146569307Y-81947440D02*
X146674069Y-81999821D01*
X146674069Y-81999821D02*
X146726450Y-82052202D01*
X146726450Y-82052202D02*
X146778831Y-82156964D01*
X146778831Y-82156964D02*
X146778831Y-82261726D01*
X146778831Y-82261726D02*
X146726450Y-82418869D01*
X146726450Y-82418869D02*
X146097878Y-83047440D01*
X146097878Y-83047440D02*
X146778831Y-83047440D01*
X147459783Y-81947440D02*
X147564545Y-81947440D01*
X147564545Y-81947440D02*
X147669307Y-81999821D01*
X147669307Y-81999821D02*
X147721688Y-82052202D01*
X147721688Y-82052202D02*
X147774069Y-82156964D01*
X147774069Y-82156964D02*
X147826450Y-82366488D01*
X147826450Y-82366488D02*
X147826450Y-82628393D01*
X147826450Y-82628393D02*
X147774069Y-82837917D01*
X147774069Y-82837917D02*
X147721688Y-82942679D01*
X147721688Y-82942679D02*
X147669307Y-82995060D01*
X147669307Y-82995060D02*
X147564545Y-83047440D01*
X147564545Y-83047440D02*
X147459783Y-83047440D01*
X147459783Y-83047440D02*
X147355021Y-82995060D01*
X147355021Y-82995060D02*
X147302640Y-82942679D01*
X147302640Y-82942679D02*
X147250259Y-82837917D01*
X147250259Y-82837917D02*
X147197878Y-82628393D01*
X147197878Y-82628393D02*
X147197878Y-82366488D01*
X147197878Y-82366488D02*
X147250259Y-82156964D01*
X147250259Y-82156964D02*
X147302640Y-82052202D01*
X147302640Y-82052202D02*
X147355021Y-81999821D01*
X147355021Y-81999821D02*
X147459783Y-81947440D01*
X148245497Y-82052202D02*
X148297878Y-81999821D01*
X148297878Y-81999821D02*
X148402640Y-81947440D01*
X148402640Y-81947440D02*
X148664545Y-81947440D01*
X148664545Y-81947440D02*
X148769307Y-81999821D01*
X148769307Y-81999821D02*
X148821688Y-82052202D01*
X148821688Y-82052202D02*
X148874069Y-82156964D01*
X148874069Y-82156964D02*
X148874069Y-82261726D01*
X148874069Y-82261726D02*
X148821688Y-82418869D01*
X148821688Y-82418869D02*
X148193116Y-83047440D01*
X148193116Y-83047440D02*
X148874069Y-83047440D01*
X149869307Y-81947440D02*
X149345497Y-81947440D01*
X149345497Y-81947440D02*
X149293116Y-82471250D01*
X149293116Y-82471250D02*
X149345497Y-82418869D01*
X149345497Y-82418869D02*
X149450259Y-82366488D01*
X149450259Y-82366488D02*
X149712164Y-82366488D01*
X149712164Y-82366488D02*
X149816926Y-82418869D01*
X149816926Y-82418869D02*
X149869307Y-82471250D01*
X149869307Y-82471250D02*
X149921688Y-82576012D01*
X149921688Y-82576012D02*
X149921688Y-82837917D01*
X149921688Y-82837917D02*
X149869307Y-82942679D01*
X149869307Y-82942679D02*
X149816926Y-82995060D01*
X149816926Y-82995060D02*
X149712164Y-83047440D01*
X149712164Y-83047440D02*
X149450259Y-83047440D01*
X149450259Y-83047440D02*
X149345497Y-82995060D01*
X149345497Y-82995060D02*
X149293116Y-82942679D01*
D10*
X141027273Y-92160669D02*
X141027273Y-92755907D01*
X141027273Y-92755907D02*
X139777273Y-92755907D01*
X139777273Y-91922574D02*
X141027273Y-91505907D01*
X141027273Y-91505907D02*
X139777273Y-91089241D01*
D11*
X160950450Y-100235440D02*
X160426640Y-100235440D01*
X160426640Y-100235440D02*
X160374259Y-100759250D01*
X160374259Y-100759250D02*
X160426640Y-100706869D01*
X160426640Y-100706869D02*
X160531402Y-100654488D01*
X160531402Y-100654488D02*
X160793307Y-100654488D01*
X160793307Y-100654488D02*
X160898069Y-100706869D01*
X160898069Y-100706869D02*
X160950450Y-100759250D01*
X160950450Y-100759250D02*
X161002831Y-100864012D01*
X161002831Y-100864012D02*
X161002831Y-101125917D01*
X161002831Y-101125917D02*
X160950450Y-101230679D01*
X160950450Y-101230679D02*
X160898069Y-101283060D01*
X160898069Y-101283060D02*
X160793307Y-101335440D01*
X160793307Y-101335440D02*
X160531402Y-101335440D01*
X160531402Y-101335440D02*
X160426640Y-101283060D01*
X160426640Y-101283060D02*
X160374259Y-101230679D01*
X161317116Y-100235440D02*
X161683783Y-101335440D01*
X161683783Y-101335440D02*
X162050450Y-100235440D01*
D10*
X132288092Y-85909273D02*
X132288092Y-84659273D01*
X132288092Y-84659273D02*
X132585711Y-84659273D01*
X132585711Y-84659273D02*
X132764282Y-84718797D01*
X132764282Y-84718797D02*
X132883330Y-84837845D01*
X132883330Y-84837845D02*
X132942853Y-84956892D01*
X132942853Y-84956892D02*
X133002377Y-85194988D01*
X133002377Y-85194988D02*
X133002377Y-85373559D01*
X133002377Y-85373559D02*
X132942853Y-85611654D01*
X132942853Y-85611654D02*
X132883330Y-85730702D01*
X132883330Y-85730702D02*
X132764282Y-85849750D01*
X132764282Y-85849750D02*
X132585711Y-85909273D01*
X132585711Y-85909273D02*
X132288092Y-85909273D01*
X134192853Y-85909273D02*
X133478568Y-85909273D01*
X133835711Y-85909273D02*
X133835711Y-84659273D01*
X133835711Y-84659273D02*
X133716663Y-84837845D01*
X133716663Y-84837845D02*
X133597615Y-84956892D01*
X133597615Y-84956892D02*
X133478568Y-85016416D01*
D11*
X148556831Y-100287821D02*
X148452069Y-100235440D01*
X148452069Y-100235440D02*
X148294926Y-100235440D01*
X148294926Y-100235440D02*
X148137783Y-100287821D01*
X148137783Y-100287821D02*
X148033021Y-100392583D01*
X148033021Y-100392583D02*
X147980640Y-100497345D01*
X147980640Y-100497345D02*
X147928259Y-100706869D01*
X147928259Y-100706869D02*
X147928259Y-100864012D01*
X147928259Y-100864012D02*
X147980640Y-101073536D01*
X147980640Y-101073536D02*
X148033021Y-101178298D01*
X148033021Y-101178298D02*
X148137783Y-101283060D01*
X148137783Y-101283060D02*
X148294926Y-101335440D01*
X148294926Y-101335440D02*
X148399688Y-101335440D01*
X148399688Y-101335440D02*
X148556831Y-101283060D01*
X148556831Y-101283060D02*
X148609212Y-101230679D01*
X148609212Y-101230679D02*
X148609212Y-100864012D01*
X148609212Y-100864012D02*
X148399688Y-100864012D01*
X149080640Y-101335440D02*
X149080640Y-100235440D01*
X149080640Y-100235440D02*
X149709212Y-101335440D01*
X149709212Y-101335440D02*
X149709212Y-100235440D01*
X150233021Y-101335440D02*
X150233021Y-100235440D01*
X150233021Y-100235440D02*
X150494926Y-100235440D01*
X150494926Y-100235440D02*
X150652069Y-100287821D01*
X150652069Y-100287821D02*
X150756831Y-100392583D01*
X150756831Y-100392583D02*
X150809212Y-100497345D01*
X150809212Y-100497345D02*
X150861593Y-100706869D01*
X150861593Y-100706869D02*
X150861593Y-100864012D01*
X150861593Y-100864012D02*
X150809212Y-101073536D01*
X150809212Y-101073536D02*
X150756831Y-101178298D01*
X150756831Y-101178298D02*
X150652069Y-101283060D01*
X150652069Y-101283060D02*
X150494926Y-101335440D01*
X150494926Y-101335440D02*
X150233021Y-101335440D01*
D12*
X133465673Y-101290219D02*
X133465673Y-100290219D01*
X133465673Y-100290219D02*
X133846625Y-100290219D01*
X133846625Y-100290219D02*
X133941863Y-100337838D01*
X133941863Y-100337838D02*
X133989482Y-100385457D01*
X133989482Y-100385457D02*
X134037101Y-100480695D01*
X134037101Y-100480695D02*
X134037101Y-100623552D01*
X134037101Y-100623552D02*
X133989482Y-100718790D01*
X133989482Y-100718790D02*
X133941863Y-100766409D01*
X133941863Y-100766409D02*
X133846625Y-100814028D01*
X133846625Y-100814028D02*
X133465673Y-100814028D01*
X134418054Y-101242600D02*
X134560911Y-101290219D01*
X134560911Y-101290219D02*
X134799006Y-101290219D01*
X134799006Y-101290219D02*
X134894244Y-101242600D01*
X134894244Y-101242600D02*
X134941863Y-101194980D01*
X134941863Y-101194980D02*
X134989482Y-101099742D01*
X134989482Y-101099742D02*
X134989482Y-101004504D01*
X134989482Y-101004504D02*
X134941863Y-100909266D01*
X134941863Y-100909266D02*
X134894244Y-100861647D01*
X134894244Y-100861647D02*
X134799006Y-100814028D01*
X134799006Y-100814028D02*
X134608530Y-100766409D01*
X134608530Y-100766409D02*
X134513292Y-100718790D01*
X134513292Y-100718790D02*
X134465673Y-100671171D01*
X134465673Y-100671171D02*
X134418054Y-100575933D01*
X134418054Y-100575933D02*
X134418054Y-100480695D01*
X134418054Y-100480695D02*
X134465673Y-100385457D01*
X134465673Y-100385457D02*
X134513292Y-100337838D01*
X134513292Y-100337838D02*
X134608530Y-100290219D01*
X134608530Y-100290219D02*
X134846625Y-100290219D01*
X134846625Y-100290219D02*
X134989482Y-100337838D01*
X136132339Y-100242600D02*
X135275197Y-101528314D01*
X136418054Y-100385457D02*
X136465673Y-100337838D01*
X136465673Y-100337838D02*
X136560911Y-100290219D01*
X136560911Y-100290219D02*
X136799006Y-100290219D01*
X136799006Y-100290219D02*
X136894244Y-100337838D01*
X136894244Y-100337838D02*
X136941863Y-100385457D01*
X136941863Y-100385457D02*
X136989482Y-100480695D01*
X136989482Y-100480695D02*
X136989482Y-100575933D01*
X136989482Y-100575933D02*
X136941863Y-100718790D01*
X136941863Y-100718790D02*
X136370435Y-101290219D01*
X136370435Y-101290219D02*
X136989482Y-101290219D01*
X138179959Y-101290219D02*
X138179959Y-100290219D01*
X138179959Y-100290219D02*
X138560911Y-100290219D01*
X138560911Y-100290219D02*
X138656149Y-100337838D01*
X138656149Y-100337838D02*
X138703768Y-100385457D01*
X138703768Y-100385457D02*
X138751387Y-100480695D01*
X138751387Y-100480695D02*
X138751387Y-100623552D01*
X138751387Y-100623552D02*
X138703768Y-100718790D01*
X138703768Y-100718790D02*
X138656149Y-100766409D01*
X138656149Y-100766409D02*
X138560911Y-100814028D01*
X138560911Y-100814028D02*
X138179959Y-100814028D01*
X139179959Y-101290219D02*
X139179959Y-100290219D01*
X139179959Y-100290219D02*
X139513292Y-101004504D01*
X139513292Y-101004504D02*
X139846625Y-100290219D01*
X139846625Y-100290219D02*
X139846625Y-101290219D01*
X140513292Y-100290219D02*
X140703768Y-100290219D01*
X140703768Y-100290219D02*
X140799006Y-100337838D01*
X140799006Y-100337838D02*
X140894244Y-100433076D01*
X140894244Y-100433076D02*
X140941863Y-100623552D01*
X140941863Y-100623552D02*
X140941863Y-100956885D01*
X140941863Y-100956885D02*
X140894244Y-101147361D01*
X140894244Y-101147361D02*
X140799006Y-101242600D01*
X140799006Y-101242600D02*
X140703768Y-101290219D01*
X140703768Y-101290219D02*
X140513292Y-101290219D01*
X140513292Y-101290219D02*
X140418054Y-101242600D01*
X140418054Y-101242600D02*
X140322816Y-101147361D01*
X140322816Y-101147361D02*
X140275197Y-100956885D01*
X140275197Y-100956885D02*
X140275197Y-100623552D01*
X140275197Y-100623552D02*
X140322816Y-100433076D01*
X140322816Y-100433076D02*
X140418054Y-100337838D01*
X140418054Y-100337838D02*
X140513292Y-100290219D01*
X141370435Y-101290219D02*
X141370435Y-100290219D01*
X141370435Y-100290219D02*
X141608530Y-100290219D01*
X141608530Y-100290219D02*
X141751387Y-100337838D01*
X141751387Y-100337838D02*
X141846625Y-100433076D01*
X141846625Y-100433076D02*
X141894244Y-100528314D01*
X141894244Y-100528314D02*
X141941863Y-100718790D01*
X141941863Y-100718790D02*
X141941863Y-100861647D01*
X141941863Y-100861647D02*
X141894244Y-101052123D01*
X141894244Y-101052123D02*
X141846625Y-101147361D01*
X141846625Y-101147361D02*
X141751387Y-101242600D01*
X141751387Y-101242600D02*
X141608530Y-101290219D01*
X141608530Y-101290219D02*
X141370435Y-101290219D01*
D10*
X132942853Y-94878797D02*
X132823806Y-94819273D01*
X132823806Y-94819273D02*
X132645234Y-94819273D01*
X132645234Y-94819273D02*
X132466663Y-94878797D01*
X132466663Y-94878797D02*
X132347615Y-94997845D01*
X132347615Y-94997845D02*
X132288092Y-95116892D01*
X132288092Y-95116892D02*
X132228568Y-95354988D01*
X132228568Y-95354988D02*
X132228568Y-95533559D01*
X132228568Y-95533559D02*
X132288092Y-95771654D01*
X132288092Y-95771654D02*
X132347615Y-95890702D01*
X132347615Y-95890702D02*
X132466663Y-96009750D01*
X132466663Y-96009750D02*
X132645234Y-96069273D01*
X132645234Y-96069273D02*
X132764282Y-96069273D01*
X132764282Y-96069273D02*
X132942853Y-96009750D01*
X132942853Y-96009750D02*
X133002377Y-95950226D01*
X133002377Y-95950226D02*
X133002377Y-95533559D01*
X133002377Y-95533559D02*
X132764282Y-95533559D01*
X133538092Y-96069273D02*
X133538092Y-94819273D01*
X133538092Y-94819273D02*
X134252377Y-96069273D01*
X134252377Y-96069273D02*
X134252377Y-94819273D01*
X134847616Y-96069273D02*
X134847616Y-94819273D01*
X134847616Y-94819273D02*
X135145235Y-94819273D01*
X135145235Y-94819273D02*
X135323806Y-94878797D01*
X135323806Y-94878797D02*
X135442854Y-94997845D01*
X135442854Y-94997845D02*
X135502377Y-95116892D01*
X135502377Y-95116892D02*
X135561901Y-95354988D01*
X135561901Y-95354988D02*
X135561901Y-95533559D01*
X135561901Y-95533559D02*
X135502377Y-95771654D01*
X135502377Y-95771654D02*
X135442854Y-95890702D01*
X135442854Y-95890702D02*
X135323806Y-96009750D01*
X135323806Y-96009750D02*
X135145235Y-96069273D01*
X135145235Y-96069273D02*
X134847616Y-96069273D01*
X145484726Y-91140092D02*
X146734726Y-91140092D01*
X146139488Y-91140092D02*
X146139488Y-91854377D01*
X145484726Y-91854377D02*
X146734726Y-91854377D01*
X146734726Y-92271044D02*
X145484726Y-92687711D01*
X145484726Y-92687711D02*
X146734726Y-93104377D01*
X133002377Y-93410226D02*
X132942853Y-93469750D01*
X132942853Y-93469750D02*
X132764282Y-93529273D01*
X132764282Y-93529273D02*
X132645234Y-93529273D01*
X132645234Y-93529273D02*
X132466663Y-93469750D01*
X132466663Y-93469750D02*
X132347615Y-93350702D01*
X132347615Y-93350702D02*
X132288092Y-93231654D01*
X132288092Y-93231654D02*
X132228568Y-92993559D01*
X132228568Y-92993559D02*
X132228568Y-92814988D01*
X132228568Y-92814988D02*
X132288092Y-92576892D01*
X132288092Y-92576892D02*
X132347615Y-92457845D01*
X132347615Y-92457845D02*
X132466663Y-92338797D01*
X132466663Y-92338797D02*
X132645234Y-92279273D01*
X132645234Y-92279273D02*
X132764282Y-92279273D01*
X132764282Y-92279273D02*
X132942853Y-92338797D01*
X132942853Y-92338797D02*
X133002377Y-92398321D01*
X133478568Y-92398321D02*
X133538092Y-92338797D01*
X133538092Y-92338797D02*
X133657139Y-92279273D01*
X133657139Y-92279273D02*
X133954758Y-92279273D01*
X133954758Y-92279273D02*
X134073806Y-92338797D01*
X134073806Y-92338797D02*
X134133330Y-92398321D01*
X134133330Y-92398321D02*
X134192853Y-92517369D01*
X134192853Y-92517369D02*
X134192853Y-92636416D01*
X134192853Y-92636416D02*
X134133330Y-92814988D01*
X134133330Y-92814988D02*
X133419044Y-93529273D01*
X133419044Y-93529273D02*
X134192853Y-93529273D01*
D12*
X162664219Y-90603333D02*
X163378504Y-90603333D01*
X163378504Y-90603333D02*
X163521361Y-90650952D01*
X163521361Y-90650952D02*
X163616600Y-90746190D01*
X163616600Y-90746190D02*
X163664219Y-90889047D01*
X163664219Y-90889047D02*
X163664219Y-90984285D01*
X163664219Y-89603333D02*
X163664219Y-90174761D01*
X163664219Y-89889047D02*
X162664219Y-89889047D01*
X162664219Y-89889047D02*
X162807076Y-89984285D01*
X162807076Y-89984285D02*
X162902314Y-90079523D01*
X162902314Y-90079523D02*
X162949933Y-90174761D01*
D13*
X154352666Y-97498819D02*
X154352666Y-98213104D01*
X154352666Y-98213104D02*
X154305047Y-98355961D01*
X154305047Y-98355961D02*
X154209809Y-98451200D01*
X154209809Y-98451200D02*
X154066952Y-98498819D01*
X154066952Y-98498819D02*
X153971714Y-98498819D01*
X154733619Y-97498819D02*
X155352666Y-97498819D01*
X155352666Y-97498819D02*
X155019333Y-97879771D01*
X155019333Y-97879771D02*
X155162190Y-97879771D01*
X155162190Y-97879771D02*
X155257428Y-97927390D01*
X155257428Y-97927390D02*
X155305047Y-97975009D01*
X155305047Y-97975009D02*
X155352666Y-98070247D01*
X155352666Y-98070247D02*
X155352666Y-98308342D01*
X155352666Y-98308342D02*
X155305047Y-98403580D01*
X155305047Y-98403580D02*
X155257428Y-98451200D01*
X155257428Y-98451200D02*
X155162190Y-98498819D01*
X155162190Y-98498819D02*
X154876476Y-98498819D01*
X154876476Y-98498819D02*
X154781238Y-98451200D01*
X154781238Y-98451200D02*
X154733619Y-98403580D01*
X129460666Y-99784819D02*
X129460666Y-100499104D01*
X129460666Y-100499104D02*
X129413047Y-100641961D01*
X129413047Y-100641961D02*
X129317809Y-100737200D01*
X129317809Y-100737200D02*
X129174952Y-100784819D01*
X129174952Y-100784819D02*
X129079714Y-100784819D01*
X129889238Y-99880057D02*
X129936857Y-99832438D01*
X129936857Y-99832438D02*
X130032095Y-99784819D01*
X130032095Y-99784819D02*
X130270190Y-99784819D01*
X130270190Y-99784819D02*
X130365428Y-99832438D01*
X130365428Y-99832438D02*
X130413047Y-99880057D01*
X130413047Y-99880057D02*
X130460666Y-99975295D01*
X130460666Y-99975295D02*
X130460666Y-100070533D01*
X130460666Y-100070533D02*
X130413047Y-100213390D01*
X130413047Y-100213390D02*
X129841619Y-100784819D01*
X129841619Y-100784819D02*
X130460666Y-100784819D01*
D10*
X142874095Y-95461619D02*
X142874095Y-96271142D01*
X142874095Y-96271142D02*
X142921714Y-96366380D01*
X142921714Y-96366380D02*
X142969333Y-96414000D01*
X142969333Y-96414000D02*
X143064571Y-96461619D01*
X143064571Y-96461619D02*
X143255047Y-96461619D01*
X143255047Y-96461619D02*
X143350285Y-96414000D01*
X143350285Y-96414000D02*
X143397904Y-96366380D01*
X143397904Y-96366380D02*
X143445523Y-96271142D01*
X143445523Y-96271142D02*
X143445523Y-95461619D01*
X144445523Y-96461619D02*
X143874095Y-96461619D01*
X144159809Y-96461619D02*
X144159809Y-95461619D01*
X144159809Y-95461619D02*
X144064571Y-95604476D01*
X144064571Y-95604476D02*
X143969333Y-95699714D01*
X143969333Y-95699714D02*
X143874095Y-95747333D01*
D14*
%TO.C,J1*%
X151512000Y-83170000D02*
X151512000Y-97170000D01*
X151512000Y-83170000D02*
X156512000Y-83170000D01*
X151512000Y-97170000D02*
X156512000Y-97170000D01*
X160512000Y-83170000D02*
X164512000Y-83170000D01*
X160512000Y-97170000D02*
X164512000Y-97170000D01*
X164512000Y-83170000D02*
X164512000Y-97170000D01*
D15*
%TO.C,J3*%
X151832000Y-98746000D02*
X151832000Y-101406000D01*
X156972000Y-98746000D02*
X151832000Y-98746000D01*
X156972000Y-98746000D02*
X156972000Y-101406000D01*
X156972000Y-101406000D02*
X151832000Y-101406000D01*
X158242000Y-98746000D02*
X159572000Y-98746000D01*
X159572000Y-98746000D02*
X159572000Y-100076000D01*
%TO.C,J2*%
X128718000Y-84014000D02*
X130048000Y-84014000D01*
X128718000Y-85344000D02*
X128718000Y-84014000D01*
X128718000Y-86614000D02*
X128718000Y-99374000D01*
X128718000Y-86614000D02*
X131378000Y-86614000D01*
X128718000Y-99374000D02*
X131378000Y-99374000D01*
X131378000Y-86614000D02*
X131378000Y-99374000D01*
D16*
%TO.C,U1*%
X136591000Y-83669000D02*
X149921000Y-83669000D01*
X136591000Y-99719000D02*
X136591000Y-83669000D01*
X149921000Y-83669000D02*
X149921000Y-99719000D01*
X149921000Y-99719000D02*
X136591000Y-99719000D01*
%TD*%
%LPC*%
D17*
%TO.C,J1*%
X156012000Y-91470000D03*
X156012000Y-88870000D03*
X156012000Y-93570000D03*
X156012000Y-86770000D03*
X153512000Y-93570000D03*
X153512000Y-86770000D03*
D18*
X158512000Y-83420000D03*
D19*
X159512000Y-90170000D03*
D18*
X158512000Y-96920000D03*
%TD*%
D20*
%TO.C,J3*%
X158242000Y-100076000D03*
D21*
X155702000Y-100076000D03*
X153162000Y-100076000D03*
%TD*%
D20*
%TO.C,J2*%
X130048000Y-85344000D03*
D21*
X130048000Y-87884000D03*
X130048000Y-90424000D03*
X130048000Y-92964000D03*
X130048000Y-95504000D03*
X130048000Y-98044000D03*
%TD*%
D20*
%TO.C,U1*%
X138176000Y-85344000D03*
D22*
X138176000Y-87884000D03*
X138176000Y-90424000D03*
X138176000Y-92964000D03*
X138176000Y-95504000D03*
X138176000Y-98044000D03*
X148336000Y-85344000D03*
X148336000Y-87884000D03*
X148336000Y-90424000D03*
X148336000Y-92964000D03*
X148336000Y-95504000D03*
X148336000Y-98044000D03*
%TD*%
%LPD*%
M02*
