M48
; DRILL file {KiCad 9.0.1} date 2025-04-06T22:03:43+0900
; FORMAT={-:-/ absolute / metric / decimal}
; #@! TF.CreationDate,2025-04-06T22:03:43+09:00
; #@! TF.GenerationSoftware,Kicad,Pcbnew,9.0.1
; #@! TF.FileFunction,Plated,1,2,PTH
FMAT,2
METRIC
; #@! TA.AperFunction,Plated,PTH,ComponentDrill
T1C0.700
; #@! TA.AperFunction,Plated,PTH,ComponentDrill
T2C1.000
; #@! TA.AperFunction,Plated,PTH,ComponentDrill
T3C2.000
%
G90
G05
T1
X153.512Y-86.77
X153.512Y-93.57
X156.012Y-86.77
X156.012Y-88.87
X156.012Y-91.47
X156.012Y-93.57
T2
X130.048Y-85.344
X130.048Y-87.884
X130.048Y-90.424
X130.048Y-92.964
X130.048Y-95.504
X130.048Y-98.044
X138.176Y-85.344
X138.176Y-87.884
X138.176Y-90.424
X138.176Y-92.964
X138.176Y-95.504
X138.176Y-98.044
X148.336Y-85.344
X148.336Y-87.884
X148.336Y-90.424
X148.336Y-92.964
X148.336Y-95.504
X148.336Y-98.044
X153.162Y-100.076
X155.702Y-100.076
X158.242Y-100.076
T3
X158.512Y-83.42
X158.512Y-96.92
X159.512Y-90.17
M30
